<svg width="40" height="40" viewBox="0 0 40 40" fill="none" xmlns="http://www.w3.org/2000/svg">
<path d="M23.7704 5.99896C21.9933 4.22188 21.1048 3.33334 20.0007 3.33334C18.8965 3.33334 18.008 4.22188 16.2309 5.99896C15.1645 7.06535 14.1078 7.56044 12.5874 7.56044C11.26 7.56044 9.37136 7.30298 8.33398 8.34909C7.30481 9.38691 7.56112 11.2678 7.56112 12.5868C7.56112 14.1071 7.06599 15.1639 5.99957 16.2303C4.22252 18.0073 3.334 18.8959 3.33398 20C3.33401 21.1041 4.22255 21.9927 5.99962 23.7697C7.19424 24.9643 7.56112 25.7357 7.56112 27.4132C7.56112 28.7407 7.30366 30.6293 8.3498 31.6667C9.38762 32.6958 11.2684 32.4395 12.5874 32.4395C14.2065 32.4395 14.9861 32.7562 16.1416 33.9117C17.1255 34.8956 18.4445 36.6667 20.0007 36.6667C21.5569 36.6667 22.8758 34.8956 23.8597 33.9117C25.0152 32.7562 25.7948 32.4395 27.4139 32.4395C28.7329 32.4395 30.6137 32.6958 31.6515 31.6667M34.0017 16.2303C35.7788 18.0073 36.6673 18.8959 36.6673 20C36.6673 21.1041 35.7788 21.9927 34.0017 23.7697C32.807 24.9643 32.4402 25.7357 32.4402 27.4132C32.4402 28.7407 32.6976 30.6293 31.6515 31.6667M31.6515 31.6667H31.6673" stroke="white" stroke-width="1.5" stroke-linecap="round" stroke-linejoin="round"/>
<path d="M13.334 17.1795C13.334 17.1795 17.084 16.6667 20.0007 23.3333C20.0007 23.3333 28.432 6.66668 36.6673 3.33334" stroke="white" stroke-width="1.5" stroke-linecap="round" stroke-linejoin="round"/>
</svg>
    