<svg width="40" height="40" viewBox="0 0 40 40" fill="none" xmlns="http://www.w3.org/2000/svg">
<path d="M32.5 9.16666L31.4671 25.8752C31.2032 30.1441 31.0713 32.2785 30.0013 33.8131C29.4722 34.5718 28.7911 35.2121 28.0012 35.6934C26.4035 36.6667 24.265 36.6667 19.9879 36.6667C15.7052 36.6667 13.5638 36.6667 11.9651 35.6915C11.1747 35.2095 10.4933 34.568 9.96447 33.8081C8.89479 32.271 8.76575 30.1335 8.50768 25.8586L7.5 9.16666" stroke="white" stroke-width="1.5" stroke-linecap="round"/>
<path d="M35 9.16666H5" stroke="white" stroke-width="1.5" stroke-linecap="round"/>
<path d="M26.7599 9.16667L25.6221 6.81954C24.8663 5.26043 24.4884 4.48087 23.8365 3.99468C23.6919 3.88683 23.5388 3.7909 23.3787 3.70783C22.6569 3.33333 21.7905 3.33333 20.0579 3.33333C18.2817 3.33333 17.3936 3.33333 16.6598 3.72353C16.4972 3.81001 16.342 3.90983 16.1958 4.02195C15.5364 4.52783 15.168 5.33592 14.4313 6.95209L13.4219 9.16667" stroke="white" stroke-width="1.5" stroke-linecap="round"/>
<path d="M15.834 27.5L15.834 17.5" stroke="white" stroke-width="1.5" stroke-linecap="round"/>
<path d="M24.166 27.5L24.166 17.5" stroke="white" stroke-width="1.5" stroke-linecap="round"/>
</svg>
