<svg width="1333" height="474" viewBox="0 0 1333 474" fill="none" xmlns="http://www.w3.org/2000/svg">
<line y1="76" x2="1332.24" y2="76" stroke="white" stroke-opacity="0.08"/>
<line y1="159.5" x2="1332.24" y2="159.5" stroke="white" stroke-opacity="0.08"/>
<line y1="243" x2="1332.24" y2="243" stroke="white" stroke-opacity="0.08"/>
<line y1="326.5" x2="1332.24" y2="326.5" stroke="white" stroke-opacity="0.08"/>
<line y1="410" x2="1332.24" y2="410" stroke="white" stroke-opacity="0.08"/>
<line x1="79.8008" x2="79.8008" y2="474" stroke="white" stroke-opacity="0.08"/>
<line x1="158.219" x2="158.219" y2="474" stroke="white" stroke-opacity="0.08"/>
<line x1="236.637" x2="236.637" y2="474" stroke="white" stroke-opacity="0.08"/>
<line x1="315.057" x2="315.057" y2="474" stroke="white" stroke-opacity="0.08"/>
<line x1="393.475" x2="393.475" y2="474" stroke="white" stroke-opacity="0.08"/>
<line x1="471.895" x2="471.895" y2="474" stroke="white" stroke-opacity="0.08"/>
<line x1="550.312" x2="550.312" y2="474" stroke="white" stroke-opacity="0.08"/>
<line x1="628.73" x2="628.73" y2="474" stroke="white" stroke-opacity="0.08"/>
<line x1="707.15" x2="707.15" y2="474" stroke="white" stroke-opacity="0.08"/>
<line x1="785.568" x2="785.568" y2="474" stroke="white" stroke-opacity="0.08"/>
<line x1="863.988" x2="863.988" y2="474" stroke="white" stroke-opacity="0.08"/>
<line x1="942.406" x2="942.406" y2="474" stroke="white" stroke-opacity="0.08"/>
<line x1="1020.82" x2="1020.82" y2="474" stroke="white" stroke-opacity="0.08"/>
<line x1="1099.24" x2="1099.24" y2="474" stroke="white" stroke-opacity="0.08"/>
<line x1="1177.66" x2="1177.66" y2="474" stroke="white" stroke-opacity="0.08"/>
<line x1="1256.08" x2="1256.08" y2="474" stroke="white" stroke-opacity="0.08"/>
</svg>
